<?xml version="1.0" encoding="utf-8"?>
<!-- Generator: Adobe Illustrator 19.0.0, SVG Export Plug-In . SVG Version: 6.00 Build 0)  -->
<svg version="1.1" baseProfile="tiny" id="Layer_1" xmlns="http://www.w3.org/2000/svg" xmlns:xlink="http://www.w3.org/1999/xlink"
	 x="0px" y="0px" viewBox="0 0 135 104" xml:space="preserve">
<g id="XMLID_435_">
	<path id="XMLID_437_" fill="#B2DDCB" d="M49.1,97.9L7.4,56.3c-0.9-0.9-0.9-2.4,0-3.3L20,40.3c0.9-0.9,2.4-0.9,3.3,0L65,82
		c0.9,0.9,0.9,2.4,0,3.3L52.4,97.9C51.5,98.9,50,98.9,49.1,97.9z"/>
	<path id="XMLID_436_" fill="#B2DDCB" d="M36.9,82l76.3-76.3c0.9-0.9,2.4-0.9,3.3,0l12.6,12.6c0.9,0.9,0.9,2.4,0,3.3L52.9,97.9
		c-0.9,0.9-2.4,0.9-3.3,0L36.9,85.3C36,84.4,36,82.9,36.9,82z"/>
</g>
</svg>
