<?xml version="1.0" encoding="utf-8"?>
<!-- Generator: Adobe Illustrator 19.0.0, SVG Export Plug-In . SVG Version: 6.00 Build 0)  -->
<svg version="1.1" baseProfile="tiny" id="Layer_1" xmlns="http://www.w3.org/2000/svg" xmlns:xlink="http://www.w3.org/1999/xlink"
	 x="0px" y="0px" viewBox="0 0 347.8 78.3" xml:space="preserve">
<g id="XMLID_493_">
	<g id="XMLID_588_">
		<path id="XMLID_596_" fill="#2D2B32" d="M129.9,29.1v48.3h-24.4V35.9c0-9.1-5.1-14.6-13.2-14.6c-9.2,0.3-14.9,7.8-14.9,18.2v37.9
			H52.7V35.9c0-9.1-5-14.6-13.1-14.6c-9.4,0.3-15.2,7.8-15.2,18.2v37.9H0V0.9h24.4v12.6C29.7,4.4,38.5-0.1,49.7-0.3
			c12.5,0,21.7,6.5,25.6,17.3c5-11.4,14.3-17.2,27-17.3C119.1-0.3,129.9,11.2,129.9,29.1z"/>
		<path id="XMLID_593_" fill="#2D2B32" d="M213.8,45.7H160c2.4,9.1,9,14.2,18,14.2c6.7,0,13.2-2.7,18.3-7.8l12.9,12.6
			c-7.8,8.5-19.3,13.5-33.4,13.5c-25,0-40.6-15.6-40.6-38.9c0-23.7,16.2-39.4,39.9-39.4C202.2,0,215.5,17.8,213.8,45.7z M190.2,32.5
			c0-9.4-6-15.5-14.8-15.5c-8.5,0-14.3,6.3-15.9,15.5H190.2z"/>
		<path id="XMLID_591_" fill="#2D2B32" d="M280.4,8.4l-8.4,15.9c-9.2-5-17.8-7.7-24.2-7.7c-4.4,0-7.5,1.7-7.5,5.3
			c0,10.5,40.3,5.4,40.2,32.1c0,15.8-13.8,24.4-32.3,24.4c-12.8,0-25.1-3.7-34.4-10.8l7.8-15.6c8.7,6.1,18.6,9.5,27.1,9.5
			c4.8,0,8.4-1.7,8.4-5.3c0-11.2-39.6-5.4-39.5-32.3c0-15.8,13.4-24.3,31.1-24.3C260-0.3,271.1,2.8,280.4,8.4z"/>
		<path id="XMLID_589_" fill="#2D2B32" d="M347.6,8.4l-8.4,15.9c-9.2-5-17.8-7.7-24.2-7.7c-4.4,0-7.5,1.7-7.5,5.3
			c0,10.5,40.3,5.4,40.2,32.1c0,15.8-13.8,24.4-32.3,24.4c-12.8,0-25.1-3.7-34.4-10.8L289,52c8.7,6.1,18.6,9.5,27.1,9.5
			c4.8,0,8.4-1.7,8.4-5.3c0-11.2-39.6-5.4-39.5-32.3c0-15.8,13.4-24.3,31.1-24.3C327.2-0.3,338.3,2.8,347.6,8.4z"/>
	</g>
	<g id="XMLID_585_">
		
			<line id="XMLID_587_" fill="none" stroke="#FFFFFF" stroke-linecap="round" stroke-miterlimit="10" x1="175" y1="40.5" x2="175" y2="13.7"/>
		
			<line id="XMLID_586_" fill="none" stroke="#FFFFFF" stroke-linecap="round" stroke-miterlimit="10" x1="175" y1="40.5" x2="156.8" y2="58.7"/>
	</g>
	<g id="XMLID_578_">
		<path id="XMLID_19_" fill="#FFFFFF" d="M175,8.1c1,0,1-1.5,0-1.5C174.1,6.6,174.1,8.1,175,8.1L175,8.1z"/>
	</g>
	<g id="XMLID_571_">
		<path id="XMLID_18_" fill="#FFFFFF" d="M208.1,41.2c1,0,1-1.5,0-1.5C207.2,39.7,207.2,41.2,208.1,41.2L208.1,41.2z"/>
	</g>
	<g id="XMLID_564_">
		<path id="XMLID_17_" fill="#ED1C24" d="M141.9,41.2c1,0,1-1.5,0-1.5C141,39.7,141,41.2,141.9,41.2L141.9,41.2z"/>
	</g>
	<g id="XMLID_557_">
		<path id="XMLID_16_" fill="#ED1C24" d="M175,74.3c1,0,1-1.5,0-1.5C174.1,72.8,174.1,74.3,175,74.3L175,74.3z"/>
	</g>
	<g id="XMLID_550_">
		<path id="XMLID_15_" fill="#FFFFFF" d="M192.8,13.5c1,0,1-1.5,0-1.5C191.9,12,191.9,13.5,192.8,13.5L192.8,13.5z"/>
	</g>
	<g id="XMLID_543_">
		<path id="XMLID_14_" fill="#FFFFFF" d="M204.4,25.8c1,0,1-1.5,0-1.5C203.4,24.3,203.4,25.8,204.4,25.8L204.4,25.8z"/>
	</g>
	<g id="XMLID_536_">
		<path id="XMLID_13_" fill="#FFFFFF" d="M141.9,41.2c1,0,1-1.5,0-1.5C141,39.7,141,41.2,141.9,41.2L141.9,41.2z"/>
	</g>
	<g id="XMLID_529_">
		<path id="XMLID_11_" fill="#FFFFFF" d="M157.2,13.5c1,0,1-1.5,0-1.5C156.3,12,156.3,13.5,157.2,13.5L157.2,13.5z"/>
	</g>
	<g id="XMLID_522_">
		<path id="XMLID_10_" fill="#FFFFFF" d="M145.7,25.8c1,0,1-1.5,0-1.5C144.7,24.3,144.7,25.8,145.7,25.8L145.7,25.8z"/>
	</g>
	<g id="XMLID_515_">
		<path id="XMLID_9_" fill="#FFFFFF" d="M175,74.3c1,0,1-1.5,0-1.5C174.1,72.8,174.1,74.3,175,74.3L175,74.3z"/>
	</g>
	<g id="XMLID_508_">
		<path id="XMLID_8_" fill="#FFFFFF" d="M157.2,69c1,0,1-1.5,0-1.5C156.3,67.5,156.3,69,157.2,69L157.2,69z"/>
	</g>
	<g id="XMLID_501_">
		<path id="XMLID_12_" fill="#FFFFFF" d="M145.7,56.7c1,0,1-1.5,0-1.5C144.7,55.2,144.7,56.7,145.7,56.7L145.7,56.7z"/>
	</g>
	<g id="XMLID_494_">
		<path id="XMLID_144_" fill="#FFFFFF" d="M192.8,69c1,0,1-1.5,0-1.5C191.9,67.5,191.9,69,192.8,69L192.8,69z"/>
	</g>
</g>
</svg>
