<?xml version="1.0" encoding="utf-8"?>
<!-- Generator: Adobe Illustrator 19.0.0, SVG Export Plug-In . SVG Version: 6.00 Build 0)  -->
<svg version="1.1" baseProfile="tiny" id="Layer_1" xmlns="http://www.w3.org/2000/svg" xmlns:xlink="http://www.w3.org/1999/xlink"
	 x="0px" y="0px" viewBox="0 0 124.5 124" xml:space="preserve">
<g id="XMLID_117_">
	<path id="XMLID_128_" fill="#E2AFAF" d="M104.1,119.3L5,20.2c-0.8-0.8-0.8-2.1,0-2.9L17.1,5.1c0.8-0.8,2.1-0.8,2.9,0l99.1,99.1
		c0.8,0.8,0.8,2.1,0,2.9L107,119.3C106.2,120.1,104.9,120.1,104.1,119.3z"/>
	<path id="XMLID_121_" fill="#E2AFAF" d="M5,104.2l99.1-99.1c0.8-0.8,2.1-0.8,2.9,0l12.1,12.1c0.8,0.8,0.8,2.1,0,2.9l-99.1,99.1
		c-0.8,0.8-2.1,0.8-2.9,0L5,107.2C4.2,106.3,4.2,105,5,104.2z"/>
</g>
</svg>
