<?xml version="1.0" encoding="utf-8"?>
<!-- Generator: Adobe Illustrator 19.0.0, SVG Export Plug-In . SVG Version: 6.00 Build 0)  -->
<svg version="1.1" baseProfile="tiny" id="Layer_1" xmlns="http://www.w3.org/2000/svg" xmlns:xlink="http://www.w3.org/1999/xlink"
	 x="0px" y="0px" viewBox="0 0 126 125" xml:space="preserve">
<g id="XMLID_710_">
	<path id="XMLID_716_" fill="#DCD8EC" d="M104.3,119.5L4.8,20c-1.1-1.1-1.1-2.8,0-3.9L16.2,4.7c1.1-1.1,2.8-1.1,3.9,0l99.5,99.5
		c1.1,1.1,1.1,2.8,0,3.9l-11.3,11.3C107.2,120.6,105.4,120.6,104.3,119.5z"/>
	<path id="XMLID_711_" fill="#DCD8EC" d="M4.8,104.3l99.5-99.5c1.1-1.1,2.8-1.1,3.9,0l11.3,11.3c1.1,1.1,1.1,2.8,0,3.9l-99.5,99.5
		c-1.1,1.1-2.8,1.1-3.9,0L4.8,108.2C3.7,107.1,3.7,105.4,4.8,104.3z"/>
</g>
</svg>
